<svg xmlns="http://www.w3.org/2000/svg" viewBox="0 0 105.17 61.34"><defs><style>.cls-1{fill:#a11a17;}</style></defs><title>arrow-down</title><g id="Ebene_2" data-name="Ebene 2"><g id="Ebene_1-2" data-name="Ebene 1"><path class="cls-1" d="M104.13,11.18,55,60.29a3.31,3.31,0,0,1-4.68.17l-.17-.17L1,11.18A3.63,3.63,0,0,1,0,8.76,3.63,3.63,0,0,1,1,6.33L6.32,1.06A3.43,3.43,0,0,1,8.75,0a3.63,3.63,0,0,1,2.42,1L52.59,42.48,94,1.06A3.31,3.31,0,0,1,98.68.89l.17.17,5.27,5.27a3.63,3.63,0,0,1,1.05,2.42A3.63,3.63,0,0,1,104.13,11.18Z"/></g></g></svg>