<svg xmlns="http://www.w3.org/2000/svg" viewBox="0 0 34.09 34"><defs><style>.cls-1{fill:#fff;}</style></defs><title>instagram-icon</title><g id="Ebene_2" data-name="Ebene 2"><g id="Ebene_1-2" data-name="Ebene 1"><path class="cls-1" d="M31,17c-.07-2.54-.09-5.09-.21-7.65a5.87,5.87,0,0,0-5.26-6,31.56,31.56,0,0,0-5-.29c-3.82,0-7.65,0-11.47.21A5.68,5.68,0,0,0,3.4,8.44a34,34,0,0,0-.31,5.15c0,3.8,0,7.61.2,11.41a5.66,5.66,0,0,0,4.93,5.62,27,27,0,0,0,4.75.31c3.86,0,7.72,0,11.58-.12a6.5,6.5,0,0,0,3.87-1.29,6.18,6.18,0,0,0,2.36-4.9c.12-2.51.14-5,.21-7.57m3.09-4.88v9.78c-.08,1.15-.14,2.3-.24,3.44a8.83,8.83,0,0,1-6.59,8.07,20.2,20.2,0,0,1-4.83.54c-4.58,0-9.16,0-13.74-.16a8.57,8.57,0,0,1-5.75-2.52A9.42,9.42,0,0,1,.12,24.58C0,20.87,0,17.16,0,13.45a49.07,49.07,0,0,1,.24-5.1,8.89,8.89,0,0,1,7.51-8c1-.18,2-.24,3-.35h12.5c.75.07,1.5.14,2.25.22a9.08,9.08,0,0,1,8.32,8.61c.1,1.11.15,2.22.23,3.33"/><path class="cls-1" d="M16.95,22.68a5.66,5.66,0,1,0-5.59-5.8,5.67,5.67,0,0,0,5.59,5.8M8.26,17A8.76,8.76,0,1,1,17,25.8,8.71,8.71,0,0,1,8.26,17"/><path class="cls-1" d="M26.12,5.89a2.05,2.05,0,1,1-2.08,2,2,2,0,0,1,2.08-2"/></g></g></svg>