<svg xmlns="http://www.w3.org/2000/svg" xmlns:xlink="http://www.w3.org/1999/xlink" viewBox="0 0 169.73 110.05"><defs><style>.cls-1{fill:none;}.cls-2{clip-path:url(#clip-path);}.cls-3{fill:#eee7d3;}.cls-4{fill:#a01a17;}.cls-5{fill:#7b170f;}</style><clipPath id="clip-path"><rect class="cls-1" width="169.73" height="110.05"/></clipPath></defs><title>logo</title><g id="Ebene_2" data-name="Ebene 2"><g id="Ebene_1-2" data-name="Ebene 1"><g class="cls-2"><path class="cls-3" d="M68,9.7A2.32,2.32,0,1,0,70.35,12,2.32,2.32,0,0,0,68,9.7"/><path class="cls-3" d="M103.61,3.39H100.9A6.13,6.13,0,0,0,95.43,0H73.68a6.13,6.13,0,0,0-5.48,3.39H65.5a6.12,6.12,0,0,0-6.12,6.12V30a6.12,6.12,0,0,0,6.12,6.12h38.12A6.12,6.12,0,0,0,109.73,30V9.51a6.13,6.13,0,0,0-6.12-6.12M105.95,30a2.34,2.34,0,0,1-2.33,2.33H65.5A2.34,2.34,0,0,1,63.16,30V9.51A2.34,2.34,0,0,1,65.5,7.17h5.85V6.12a2.34,2.34,0,0,1,2.33-2.33H95.43a2.34,2.34,0,0,1,2.33,2.33V7.17h5.85a2.34,2.34,0,0,1,2.33,2.34Z"/><rect class="cls-4" x="151.17" y="86.73" width="2.35" height="2.3"/><rect class="cls-4" x="151.21" y="91.48" width="2.28" height="12.89"/><path class="cls-4" d="M137.15,92.32a3.87,3.87,0,0,0-2.1-.62,3.92,3.92,0,0,0-3.9,3.9v5.51A3.92,3.92,0,0,0,135,105a3.87,3.87,0,0,0,2.1-.62V105H139V91.69h-1.8Zm-.6,9.19a1.49,1.49,0,1,1-3,0V95.2a1.49,1.49,0,0,1,3,0Z"/><path class="cls-4" d="M143.67,89h0v2.82h-1.2v2h1.2v10.83h2.08V93.75H147v-2h-1.23V90.08h0c0-1.3.29-1.67,1.45-1.67h.88V86.52H146.2c-2.14,0-2.53,1.18-2.53,2.45"/><path class="cls-4" d="M119.21,91.25H116.8v.3a3.87,3.87,0,0,0-1.49-.3,3.91,3.91,0,0,0-3.9,3.9v5.51a3.91,3.91,0,0,0,3.9,3.9,3.86,3.86,0,0,0,1.49-.3v2.28a1.49,1.49,0,0,1-3,0v-.45h-2.41v.05a3.9,3.9,0,1,0,7.81,0V91.25Zm-2.41,9v.83a1.49,1.49,0,1,1-3,0V94.75a1.49,1.49,0,1,1,3,0Z"/><path class="cls-4" d="M73.89,88h0v2.82h-1.2v2h1.2v10.83H76V92.75H77.2v-2H76V89.08h0c0-1.3.29-1.67,1.45-1.67h.88V85.52H76.42c-2.14,0-2.53,1.18-2.53,2.45"/><path class="cls-4" d="M94.47,85.8l-2.13,1.25v3.9H91v2h1.3v9.21a1.54,1.54,0,0,0,1.59,1.46h2.44v-1.72H95.15a.67.67,0,0,1-.68-.68V92.91h2.35v-2H94.47Z"/><path class="cls-4" d="M103.85,90.26a3.92,3.92,0,0,0-3.9,3.9v5.51a3.9,3.9,0,1,0,7.81,0V94.17a3.92,3.92,0,0,0-3.9-3.9m1.49,9.81a1.49,1.49,0,1,1-3,0V93.77a1.49,1.49,0,0,1,3,0Z"/><path class="cls-4" d="M84,90.26a3.92,3.92,0,0,0-3.9,3.9v5.51a3.9,3.9,0,1,0,7.81,0V94.17a3.91,3.91,0,0,0-3.9-3.9m1.49,9.81a1.49,1.49,0,1,1-3,0V93.77a1.49,1.49,0,0,1,3,0Z"/><path class="cls-4" d="M161.38,91.25a3.92,3.92,0,0,0-3.9,3.9v5.51a3.9,3.9,0,1,0,7.81,0v-.26h-2.41v.66a1.49,1.49,0,1,1-3,0V98.27h5.4V95.15a3.92,3.92,0,0,0-3.9-3.9m1.49,4.88h-3V94.75a1.49,1.49,0,0,1,3,0Z"/><path class="cls-4" d="M126.64,91.69a3,3,0,0,0-2.31,1.12l0-1.08-1.56,0v12.89h2.41V95.2a1.49,1.49,0,0,1,2.76-.79l1.89-1.09a3.88,3.88,0,0,0-3.15-1.63"/><path class="cls-3" d="M79.38,51.42l-4.55-.12-.29.91-2.85,9.73c-.9,2.81-2.54,4-4.67,4-2.68,0-3.47-2.32-2.84-4.29l3.9-13.6c.87-2.7,3.29-5.45,5.33-5.45,2.57,0,3.33,2.23,2.73,4.12l-.25.79H76c2.12-.16,3.18-.87,3.35-2.93a5.11,5.11,0,0,0-5.31-5.73c-3.15,0-8.3,1.74-11.24,11.5s-4.9,13.5-2.42,17a6.25,6.25,0,0,0,5.19,3.08,11.72,11.72,0,0,0,5.48-1.3L69.93,74H66c-3.94,0-7.16.85-9.56,2.54a8.48,8.48,0,0,0-3.82,6.27,7.32,7.32,0,0,0,2.17,5.79,9.21,9.21,0,0,0,6.56,2.46c4.86,0,8.65-3,11.37-13.06,85.8,0,79.66,0,88.13,0l2.53-4-90,0s6-22.22,6-22.6M61.63,87.08c-3.48,0-5.19-2.18-5-4.23a4.14,4.14,0,0,1,1.94-3c1.14-.8,3.3-1.75,7.11-1.75h2.8c-2.46,6-3.81,9-6.82,9"/><path class="cls-3" d="M97.32,64.73c-.55,1.72-1.55,2.45-2.85,2.45a1.84,1.84,0,0,1-1.74-2.62l.47-1.49.71-2.3h0c1.18-4.07,2.82-8.71,2.82-8.71l-4.36-.12a5.59,5.59,0,0,0-2.24-1c-3.58-.73-8.43,1.63-10,6.71-1.38,4.42-3,8.38-1.08,11a6.79,6.79,0,0,0,5.54,2.4,7.1,7.1,0,0,0,4.92-2l.11.17a5.08,5.08,0,0,0,4.27,1.79l.62,0a6.61,6.61,0,0,0,4-1.86l.16.23a5.08,5.08,0,0,0,4.27,1.79l.62,0h.22a8,8,0,0,0,5.56-2.06,5.11,5.11,0,0,0,4.18,1.69l.62,0a5.39,5.39,0,0,0,.93-.14l0,.09h4l4.71-15.27.1-.31v.17a5.24,5.24,0,0,1,4.2-1.59,4.67,4.67,0,0,1,3.65,1.63l-.38,1.14c-.71,2.11-1.31,3.93-1.76,5.5l-.74,2.35c-1,3.21.27,7,4.64,7a6.87,6.87,0,0,0,5.27-2.24,5.2,5.2,0,0,0,4.75,2.39c3.89,0,6.88-2.21,8.53-7.33l-3.46-.12a7.3,7.3,0,0,1-.57,1.17,4.16,4.16,0,0,1-3.73,2.14A2.79,2.79,0,0,1,141.34,64c0-.07,0-.14,0-.21a4.1,4.1,0,0,1,.14-.58l.75-2.35h10.31c1.13-4.4,1.18-10-4.08-10-4.81,0-7.16,1.92-8.89,7.11-.09.28-.18.56-.27.85l-.11.39-.06.21q-.11.39-.22.79l-.73,2.45L137.47,65c-.56,1.75-1.59,2.51-2.92,2.51a1.88,1.88,0,0,1-1.78-2.68l.48-1.52,1.06-3.45.73-2.38c1-3.46,2-6.63,2-6.63H133.2L132.82,52a5,5,0,0,0-3.83-1.5,10.08,10.08,0,0,0-3.9.83l.18-.58-4.09-.08-4.27,14-.08.22v0h0v0A2.87,2.87,0,0,1,114,67.12a1.84,1.84,0,0,1-1.74-2.62l.47-1.49.56-1.82.15-.48h0c-1.2,4.07-.24.84,0,0l.06-.18.07-.28.09-.36c1.3-5.52-.89-8.68-4.87-8.68a12.69,12.69,0,0,0-3.67.48l3.33-10.37H105ZM90.2,58.51l-.09.36-.44,1.38L89,62.48l-.31,1c-.78,2.42-2.19,3.45-4,3.45a2.41,2.41,0,0,1-2.36-1.37,3.38,3.38,0,0,1,0-2.05L83,61.42l1-3.24c.78-2.42,2.19-3.45,4-3.45a3.21,3.21,0,0,1,.94.14A2.24,2.24,0,0,1,90.34,56a5.74,5.74,0,0,1-.13,2.47m57.13-4.38a3,3,0,0,1,.91.13,2.19,2.19,0,0,1,1.44,1.38,4.87,4.87,0,0,1,0,1.86h-6.24c.76-2.36,2.12-3.37,3.88-3.37m-45.52,10V64c0-.09,0-.18,0-.26l0-.1c0-.12.06-.24.09-.36l.66-2.09,1-3.24c.78-2.42,2.19-3.45,4-3.45a3.21,3.21,0,0,1,.94.14,2.25,2.25,0,0,1,1.49,1.4,5.66,5.66,0,0,1-.12,2.52l-.09.36-.44,1.38-.69,2.24-.31,1c0,.14-.09.27-.14.4l0,.12-.1.25-.06.13-.11.22-.06.12-.15.27-.07.12-.13.2-.09.13-.1.13-.11.13-.1.1-.12.13L107,66l-.3.24-.06,0-.17.11-.07,0-.18.1-.05,0-.37.16-.13,0-.21.06a5,5,0,0,1-.87.08,3,3,0,0,1-2.15-.76,2.39,2.39,0,0,1-.22-.29h0a2.67,2.67,0,0,1-.37-1h0a3.15,3.15,0,0,1,0-.34s0-.06,0-.09,0-.18,0-.27"/><path class="cls-3" d="M166.16,63.81a7.57,7.57,0,0,1-.59,1.2,4.3,4.3,0,0,1-3.86,2.21,2.88,2.88,0,0,1-3-3.46c0-.07,0-.14,0-.21a4.24,4.24,0,0,1,.14-.6l.77-2.43h0l6-18.87h-3.57L156.9,57.48s-.19.58-.28.88l-.12.4-.06.22c-.08.27-.15.54-.22.81l-.75,2.53-.75,2.43c-2.76,7.07-8.19,6.49-5.93,6.49s5.77-.61,7.23-2.19a5.37,5.37,0,0,0,4.9,2.46c4,0,7.1-2.28,8.8-7.57Z"/><polygon class="cls-3" points="158.49 43.37 142.8 43.37 142.58 43.37 141.44 47.01 157.19 47.01 158.49 43.37"/><polygon class="cls-3" points="138.94 43.37 135.37 43.37 134.23 47.01 137.83 47.01 138.94 43.37"/><polygon class="cls-3" points="82.14 47.01 98.62 47.01 100.17 43.37 83.53 43.37 82.14 47.01"/><polygon class="cls-3" points="130.64 47.01 131.74 43.37 110.78 43.37 109.43 47.01 130.63 47.01 130.64 47.01"/><path class="cls-3" d="M9.61,71.1a7.82,7.82,0,0,0,5-1.54,4.58,4.58,0,0,0,1.28-.92,5.37,5.37,0,0,0,4.9,2.46,8.08,8.08,0,0,0,4.83-1.46,4.76,4.76,0,0,0,1.43-1A5.37,5.37,0,0,0,32,71.11a7.94,7.94,0,0,0,5.81-2.3c.81,1.46,2.44,2.38,5.32,2.38,4.41,0,6.38-2.41,7.66-5.73H46.59a3.69,3.69,0,0,1-3.3,1.86c-2.3,0-3-2-2.45-3.69l.55-1.74H51.88c1.22-4.47,1.38-10.4-4.16-10.4-5.23,0-7.64,2.15-9.44,8-.4,1.3-1.07,3.87-1.07,3.87a7.5,7.5,0,0,1-.59,1.2,4.29,4.29,0,0,1-3.86,2.21,2.88,2.88,0,0,1-3-3.46c0-.07,0-.14,0-.21a4.27,4.27,0,0,1,.14-.6l.77-2.43h0l3.62-11h23.3l2.29-3.64H35.49l.89-2.9H32.81l-.92,2.9h-4.2l-1.18,3.64h4.17l-2.74,8s-.19.58-.28.88l-.12.4-.06.21c-.08.27-.15.54-.22.81l-.75,2.53L26,63.44a7.65,7.65,0,0,1-.58,1.17,4.29,4.29,0,0,1-3.86,2.21,2.88,2.88,0,0,1-3-3.46c0-.07,0-.14,0-.21a4.73,4.73,0,0,1,.14-.6l.77-2.43h0l5.64-17.27H21.61L16.78,57.08s-.19.58-.28.88l-.12.4-.06.21q-.12.41-.22.81l-.75,2.53-.42,1.37a7.88,7.88,0,0,1-.6,1.22,4.36,4.36,0,0,1-3.92,2.24,2.93,2.93,0,0,1-3.06-3.52c0-.07,0-.15,0-.22a4.5,4.5,0,0,1,.14-.61L8,60.81H8l.28-.88h0l5.58-17.09H10.18s-2.07,5.5-3.23,9c-.36,1.09-1.23,3.7-1.57,4.8L5,57.74l-.2.63-.52,1.79C2.35,67.23,4,71,9.61,71.1M46.53,54.84a3.18,3.18,0,0,1,.94.14A2.25,2.25,0,0,1,49,56.37a4.82,4.82,0,0,1,0,1.87H42.53c.78-2.38,2.18-3.41,4-3.41"/><polygon class="cls-3" points="53.86 73.73 1.39 73.73 0 77.74 51.89 77.74 53.86 73.73"/><path class="cls-5" d="M78.18,23.64v0h0s0,0,0,0"/><path class="cls-5" d="M80.61,24.65a3.35,3.35,0,0,1-.5,0h.32l.18,0"/><polygon class="cls-5" points="79.17 21.31 79.17 21.31 79.19 21.31 79.17 21.31"/><path class="cls-5" d="M84.7,24.72l.27,0c-.14,0-.27,0-.42,0h.15"/><path class="cls-5" d="M87.3,23.65l-.06.07.06-.07"/><path class="cls-5" d="M78.11,23.5l-.17.17.17-.17"/><path class="cls-5" d="M82.67,23.68l0,0,0,0"/><path class="cls-5" d="M85.46,22.85a1.94,1.94,0,0,1-.47.05,1.64,1.64,0,0,1-.41,0,1.64,1.64,0,0,0,.41,0,1.94,1.94,0,0,0,.47-.05"/><polygon class="cls-5" points="91.36 21.5 91.31 21.5 91.36 21.5 92.78 21.55 91.36 21.5"/><path class="cls-5" d="M90.05,22.85a2,2,0,0,1-.47.05,1.64,1.64,0,0,1-.41,0,1.64,1.64,0,0,0,.41,0,2,2,0,0,0,.47-.05"/><path class="cls-4" d="M80.62,11.33h-.11a1,1,0,0,0-.86.89,1.23,1.23,0,0,0,.08.72.73.73,0,0,0,.53.44h.11a1,1,0,0,0,.86-.89,1.23,1.23,0,0,0-.08-.72.73.73,0,0,0-.52-.44m-.25,1.79H80.3a.37.37,0,0,0,.15,0l-.09,0m.21-1.53a.41.41,0,0,0-.15,0l.09,0h.07a.41.41,0,0,1,.22.12.41.41,0,0,0-.22-.12"/><path class="cls-4" d="M84.94,11.61h-.11a1,1,0,0,0-.85.89.93.93,0,0,0,.6,1.16h.11a1,1,0,0,0,.86-.89,1.23,1.23,0,0,0-.08-.72.73.73,0,0,0-.52-.44"/><path class="cls-5" d="M80.37,13.12l.09,0a.39.39,0,0,1-.15,0h.07"/><path class="cls-5" d="M80.51,11.58l-.09,0a.39.39,0,0,1,.15,0,.41.41,0,0,1,.22.12.41.41,0,0,0-.22-.12h-.07"/><path class="cls-3" d="M84.56,5.69A12.74,12.74,0,1,0,97.3,18.43,12.75,12.75,0,0,0,84.56,5.69m0,22.6a9.8,9.8,0,0,1-7-2.91l.15.15-.15-.15-.15-.15c-.08-.08-1.29-1.68-1.29-1.68a9.85,9.85,0,1,1,8.41,4.74"/><path class="cls-4" d="M76.83,24.44a3.93,3.93,0,0,0,1.06-.38l.19-.16a2.91,2.91,0,0,0,2,1h.34a3.23,3.23,0,0,0,2.21-.85,2,2,0,0,0,1.91.9h.16A3.76,3.76,0,0,0,87.28,24a2.75,2.75,0,0,0,2.12.88,3.29,3.29,0,0,0,2.51-1A5.06,5.06,0,0,0,93,21.61l.08-.31h-.32l-1.43-.05h-.2l-.11.19a2.56,2.56,0,0,1-.19.45,1.36,1.36,0,0,1-1.29.77,1.06,1.06,0,0,1-.8-.3,1.17,1.17,0,0,1-.3-.86h0V21.4a2.05,2.05,0,0,1,0-.21l.21-.88,0-.12L90,15h1.88l.42-2h-1.8l.29-1.2.08-.32h-2l0,.2L88.53,13H86.79l-.05.2-.37,1.5L86.3,15H88l-1,3.83s-.06.24-.09.37l0,.17,0,.09c0,.11,0,.23-.07.34l-.23,1-.13.6a2.59,2.59,0,0,1-.18.44,1.36,1.36,0,0,1-1.29.77,1.06,1.06,0,0,1-.8-.3,1.17,1.17,0,0,1-.3-.86v-.07a1.63,1.63,0,0,1,0-.22l.19-.8h0l0-.2L85.4,15l.08-.32h-2l0,.2-1,4s-.06.24-.09.37l0,.17,0,.08-.07.35-.23,1-.22,1.05a1.36,1.36,0,0,1-1.28.77,1.06,1.06,0,0,1-.8-.3,1.17,1.17,0,0,1-.3-.86L80.92,15l.08-.32H79l0,.2-1,4-.09.37,0,.09,0,.08,0,.09-.07.34-.23,1-.13.56v.08l0,.17a4.06,4.06,0,0,1-1.19,1.92Z"/></g></g></g></svg>