<svg xmlns="http://www.w3.org/2000/svg" viewBox="0 0 32.4 41.65"><defs><style>.cls-1{fill:#fff;}</style></defs><title>pinterest-icon</title><g id="Ebene_2" data-name="Ebene 2"><g id="Ebene_1-2" data-name="Ebene 1"><path class="cls-1" d="M14.12.14C7.2.91.3,6.51,0,14.51c-.18,4.89,1.21,8.55,5.85,9.58,2-3.56-.65-4.34-1.07-6.92C3.1,6.62,17-.57,24.23,6.79c5,5.1,1.72,20.79-6.39,19.16-7.76-1.56,3.8-14-2.4-16.5-5-2-7.71,6.09-5.32,10.11C8.73,26.48,5.71,33,6.93,41.65c4-2.87,5.29-8.37,6.39-14.1,2,1.21,3.05,2.46,5.59,2.66,9.36.72,14.58-9.34,13.3-18.63C31.08,3.35,22.87-.84,14.12.14"/></g></g></svg>